# xmcd
#
# Track frame offsets: 
#        150
#        5453
#        20846
#        33280
#        49918
#        63753
#        81946
#        97849
#        105340
#        128568
#        145959
#        162939
#        175455
#
# Disc length: 2562 seconds
#
# Revision: 0
# Processed by: cddbd v1.5.2PL0 Copyright (c) Steve Scherf et al.
# Submitted via: ExactAudioCopy v1.3
#
DISCID=9f0a000d
DTITLE=Goodnight Texas - Uncle John Farquhar
DYEAR=2019
DGENRE=Country
TTITLE0=Hayride
TTITLE1=Button Your Collar
TTITLE2=A Bank Robber's Nursery Rhyme
TTITLE3=I Just Can't Stop Leaving Town
TTITLE4=The Horse Accident
TTITLE5=Cold Riders
TTITLE6=Moonshiners
TTITLE7=Many Miles from Blacksburg
TTITLE8=Dearest Sarah
TTITLE9=Ballad of a Fair Young Lady
TTITLE10=Uncle John Farquhar
TTITLE11=Hello Nebraska
TTITLE12=Knock 'Em Stiff
EXTD=
EXTT0=
EXTT1=
EXTT2=
EXTT3=
EXTT4=
EXTT5=
EXTT6=
EXTT7=
EXTT8=
EXTT9=
EXTT10=
EXTT11=
EXTT12=
PLAYORDER=
